<mxfile host="app.diagrams.net" modified="2022-06-15T16:15:58.514Z" agent="5.0 (Windows NT 10.0; Win64; x64) AppleWebKit/537.36 (KHTML, like Gecko) Chrome/102.0.5005.63 Safari/537.36 Edg/102.0.1245.39" etag="6oup0oe9DLWlj_izxn0u" version="20.0.1" type="github">
  <diagram id="D1RPN2QE53cFAJwxmJvd" name="第 1 页">
    <mxGraphModel dx="4687" dy="1647" grid="1" gridSize="10" guides="1" tooltips="1" connect="1" arrows="1" fold="1" page="1" pageScale="1" pageWidth="2000" pageHeight="2000" math="0" shadow="0">
      <root>
        <mxCell id="0" />
        <mxCell id="1" parent="0" />
        <mxCell id="Kjfhgvf4wOYDhGiWFe_a-2" value="Actor" style="shape=umlActor;verticalLabelPosition=bottom;verticalAlign=top;html=1;" vertex="1" parent="1">
          <mxGeometry x="363.75" y="310" width="30" height="60" as="geometry" />
        </mxCell>
        <mxCell id="Kjfhgvf4wOYDhGiWFe_a-48" style="edgeStyle=orthogonalEdgeStyle;rounded=0;orthogonalLoop=1;jettySize=auto;html=1;fontFamily=Verdana;fontSize=16;" edge="1" parent="1" source="Kjfhgvf4wOYDhGiWFe_a-5" target="Kjfhgvf4wOYDhGiWFe_a-19">
          <mxGeometry relative="1" as="geometry" />
        </mxCell>
        <mxCell id="Kjfhgvf4wOYDhGiWFe_a-5" value="&lt;pre style=&quot;font-size: 15px;&quot;&gt;&lt;font face=&quot;Verdana&quot; style=&quot;font-size: 15px;&quot;&gt;开始&lt;/font&gt;&lt;/pre&gt;" style="rounded=1;whiteSpace=wrap;html=1;fontSize=15;fontStyle=0" vertex="1" parent="1">
          <mxGeometry x="318.75" y="400" width="120" height="40" as="geometry" />
        </mxCell>
        <mxCell id="Kjfhgvf4wOYDhGiWFe_a-22" value="" style="edgeStyle=orthogonalEdgeStyle;rounded=0;orthogonalLoop=1;jettySize=auto;html=1;fontFamily=Verdana;fontSize=16;" edge="1" parent="1" target="Kjfhgvf4wOYDhGiWFe_a-19">
          <mxGeometry relative="1" as="geometry">
            <mxPoint x="378.8000000000002" y="460" as="sourcePoint" />
          </mxGeometry>
        </mxCell>
        <mxCell id="Kjfhgvf4wOYDhGiWFe_a-26" style="edgeStyle=orthogonalEdgeStyle;rounded=0;orthogonalLoop=1;jettySize=auto;html=1;exitX=0.5;exitY=1;exitDx=0;exitDy=0;fontFamily=Verdana;fontSize=16;" edge="1" parent="1" target="Kjfhgvf4wOYDhGiWFe_a-24">
          <mxGeometry relative="1" as="geometry">
            <mxPoint x="378.75" y="460" as="sourcePoint" />
            <Array as="points">
              <mxPoint x="379" y="490" />
              <mxPoint x="650" y="490" />
            </Array>
          </mxGeometry>
        </mxCell>
        <mxCell id="Kjfhgvf4wOYDhGiWFe_a-28" style="edgeStyle=orthogonalEdgeStyle;rounded=0;orthogonalLoop=1;jettySize=auto;html=1;fontFamily=Verdana;fontSize=16;" edge="1" parent="1" target="Kjfhgvf4wOYDhGiWFe_a-23">
          <mxGeometry relative="1" as="geometry">
            <mxPoint x="378.8000000000002" y="460" as="sourcePoint" />
            <Array as="points">
              <mxPoint x="379" y="490" />
              <mxPoint x="110" y="490" />
            </Array>
          </mxGeometry>
        </mxCell>
        <mxCell id="Kjfhgvf4wOYDhGiWFe_a-29" style="edgeStyle=orthogonalEdgeStyle;rounded=0;orthogonalLoop=1;jettySize=auto;html=1;fontFamily=Verdana;fontSize=16;" edge="1" parent="1" target="Kjfhgvf4wOYDhGiWFe_a-25">
          <mxGeometry relative="1" as="geometry">
            <mxPoint x="378.8000000000002" y="460" as="sourcePoint" />
            <Array as="points">
              <mxPoint x="379" y="490" />
              <mxPoint x="1090" y="490" />
            </Array>
          </mxGeometry>
        </mxCell>
        <mxCell id="Kjfhgvf4wOYDhGiWFe_a-30" style="edgeStyle=orthogonalEdgeStyle;rounded=0;orthogonalLoop=1;jettySize=auto;html=1;entryX=0.5;entryY=0;entryDx=0;entryDy=0;fontFamily=Verdana;fontSize=16;" edge="1" parent="1" target="Kjfhgvf4wOYDhGiWFe_a-21">
          <mxGeometry relative="1" as="geometry">
            <mxPoint x="378.8000000000002" y="460" as="sourcePoint" />
            <Array as="points">
              <mxPoint x="379" y="490" />
              <mxPoint x="-190" y="490" />
            </Array>
          </mxGeometry>
        </mxCell>
        <mxCell id="Kjfhgvf4wOYDhGiWFe_a-54" style="edgeStyle=orthogonalEdgeStyle;rounded=0;orthogonalLoop=1;jettySize=auto;html=1;fontFamily=Verdana;fontSize=16;" edge="1" parent="1" source="Kjfhgvf4wOYDhGiWFe_a-19" target="Kjfhgvf4wOYDhGiWFe_a-33">
          <mxGeometry relative="1" as="geometry" />
        </mxCell>
        <mxCell id="Kjfhgvf4wOYDhGiWFe_a-56" style="edgeStyle=orthogonalEdgeStyle;rounded=0;orthogonalLoop=1;jettySize=auto;html=1;fontFamily=Verdana;fontSize=16;" edge="1" parent="1" source="Kjfhgvf4wOYDhGiWFe_a-19" target="Kjfhgvf4wOYDhGiWFe_a-46">
          <mxGeometry relative="1" as="geometry">
            <Array as="points">
              <mxPoint x="379" y="790" />
              <mxPoint x="724" y="790" />
            </Array>
          </mxGeometry>
        </mxCell>
        <mxCell id="Kjfhgvf4wOYDhGiWFe_a-57" style="edgeStyle=orthogonalEdgeStyle;rounded=0;orthogonalLoop=1;jettySize=auto;html=1;fontFamily=Verdana;fontSize=16;" edge="1" parent="1" source="Kjfhgvf4wOYDhGiWFe_a-19" target="Kjfhgvf4wOYDhGiWFe_a-31">
          <mxGeometry relative="1" as="geometry">
            <Array as="points">
              <mxPoint x="379" y="790" />
              <mxPoint x="-80" y="790" />
            </Array>
          </mxGeometry>
        </mxCell>
        <mxCell id="Kjfhgvf4wOYDhGiWFe_a-19" value="首页（图像处理模块）" style="rounded=0;whiteSpace=wrap;html=1;fontFamily=Verdana;fontSize=15;" vertex="1" parent="1">
          <mxGeometry x="288.75" y="520" width="180" height="40" as="geometry" />
        </mxCell>
        <mxCell id="Kjfhgvf4wOYDhGiWFe_a-59" value="" style="edgeStyle=orthogonalEdgeStyle;rounded=0;orthogonalLoop=1;jettySize=auto;html=1;fontFamily=Verdana;fontSize=16;" edge="1" parent="1" source="Kjfhgvf4wOYDhGiWFe_a-21" target="Kjfhgvf4wOYDhGiWFe_a-58">
          <mxGeometry relative="1" as="geometry" />
        </mxCell>
        <mxCell id="Kjfhgvf4wOYDhGiWFe_a-61" style="edgeStyle=orthogonalEdgeStyle;rounded=0;orthogonalLoop=1;jettySize=auto;html=1;entryX=0.5;entryY=0;entryDx=0;entryDy=0;fontFamily=Verdana;fontSize=16;" edge="1" parent="1" source="Kjfhgvf4wOYDhGiWFe_a-21" target="Kjfhgvf4wOYDhGiWFe_a-60">
          <mxGeometry relative="1" as="geometry" />
        </mxCell>
        <mxCell id="Kjfhgvf4wOYDhGiWFe_a-21" value="教程视频模块" style="rounded=0;whiteSpace=wrap;html=1;fontFamily=Verdana;fontSize=15;" vertex="1" parent="1">
          <mxGeometry x="-280" y="520" width="180" height="40" as="geometry" />
        </mxCell>
        <mxCell id="Kjfhgvf4wOYDhGiWFe_a-66" style="edgeStyle=orthogonalEdgeStyle;rounded=0;orthogonalLoop=1;jettySize=auto;html=1;fontFamily=Verdana;fontSize=16;" edge="1" parent="1" source="Kjfhgvf4wOYDhGiWFe_a-23" target="Kjfhgvf4wOYDhGiWFe_a-65">
          <mxGeometry relative="1" as="geometry" />
        </mxCell>
        <mxCell id="Kjfhgvf4wOYDhGiWFe_a-67" style="edgeStyle=orthogonalEdgeStyle;rounded=0;orthogonalLoop=1;jettySize=auto;html=1;entryX=0.5;entryY=0;entryDx=0;entryDy=0;fontFamily=Verdana;fontSize=16;" edge="1" parent="1" source="Kjfhgvf4wOYDhGiWFe_a-23" target="Kjfhgvf4wOYDhGiWFe_a-64">
          <mxGeometry relative="1" as="geometry" />
        </mxCell>
        <mxCell id="Kjfhgvf4wOYDhGiWFe_a-23" value="电子书阅读模块" style="rounded=0;whiteSpace=wrap;html=1;fontFamily=Verdana;fontSize=15;" vertex="1" parent="1">
          <mxGeometry x="20" y="520" width="180" height="40" as="geometry" />
        </mxCell>
        <mxCell id="Kjfhgvf4wOYDhGiWFe_a-85" value="" style="edgeStyle=orthogonalEdgeStyle;rounded=0;orthogonalLoop=1;jettySize=auto;html=1;fontFamily=Verdana;fontSize=16;" edge="1" parent="1" source="Kjfhgvf4wOYDhGiWFe_a-24" target="Kjfhgvf4wOYDhGiWFe_a-83">
          <mxGeometry relative="1" as="geometry" />
        </mxCell>
        <mxCell id="Kjfhgvf4wOYDhGiWFe_a-86" style="edgeStyle=orthogonalEdgeStyle;rounded=0;orthogonalLoop=1;jettySize=auto;html=1;fontFamily=Verdana;fontSize=16;" edge="1" parent="1" source="Kjfhgvf4wOYDhGiWFe_a-24" target="Kjfhgvf4wOYDhGiWFe_a-81">
          <mxGeometry relative="1" as="geometry" />
        </mxCell>
        <mxCell id="Kjfhgvf4wOYDhGiWFe_a-24" value="教程文章模块" style="rounded=0;whiteSpace=wrap;html=1;fontFamily=Verdana;fontSize=15;" vertex="1" parent="1">
          <mxGeometry x="559.38" y="520" width="180" height="40" as="geometry" />
        </mxCell>
        <mxCell id="Kjfhgvf4wOYDhGiWFe_a-89" style="edgeStyle=orthogonalEdgeStyle;rounded=0;orthogonalLoop=1;jettySize=auto;html=1;entryX=0.5;entryY=0;entryDx=0;entryDy=0;fontFamily=Verdana;fontSize=16;" edge="1" parent="1" source="Kjfhgvf4wOYDhGiWFe_a-25" target="Kjfhgvf4wOYDhGiWFe_a-87">
          <mxGeometry relative="1" as="geometry">
            <Array as="points">
              <mxPoint x="1090" y="600" />
              <mxPoint x="875" y="600" />
            </Array>
          </mxGeometry>
        </mxCell>
        <mxCell id="Kjfhgvf4wOYDhGiWFe_a-92" style="edgeStyle=orthogonalEdgeStyle;rounded=0;orthogonalLoop=1;jettySize=auto;html=1;entryX=0.5;entryY=0;entryDx=0;entryDy=0;fontFamily=Verdana;fontSize=16;" edge="1" parent="1" source="Kjfhgvf4wOYDhGiWFe_a-25" target="Kjfhgvf4wOYDhGiWFe_a-91">
          <mxGeometry relative="1" as="geometry" />
        </mxCell>
        <mxCell id="Kjfhgvf4wOYDhGiWFe_a-93" style="edgeStyle=orthogonalEdgeStyle;rounded=0;orthogonalLoop=1;jettySize=auto;html=1;fontFamily=Verdana;fontSize=16;" edge="1" parent="1" source="Kjfhgvf4wOYDhGiWFe_a-25" target="Kjfhgvf4wOYDhGiWFe_a-88">
          <mxGeometry relative="1" as="geometry" />
        </mxCell>
        <mxCell id="Kjfhgvf4wOYDhGiWFe_a-95" style="edgeStyle=orthogonalEdgeStyle;rounded=0;orthogonalLoop=1;jettySize=auto;html=1;fontFamily=Verdana;fontSize=16;" edge="1" parent="1" source="Kjfhgvf4wOYDhGiWFe_a-25" target="Kjfhgvf4wOYDhGiWFe_a-94">
          <mxGeometry relative="1" as="geometry">
            <Array as="points">
              <mxPoint x="1090" y="600" />
              <mxPoint x="1325" y="600" />
            </Array>
          </mxGeometry>
        </mxCell>
        <mxCell id="Kjfhgvf4wOYDhGiWFe_a-25" value="我的主页模块" style="rounded=0;whiteSpace=wrap;html=1;fontFamily=Verdana;fontSize=15;" vertex="1" parent="1">
          <mxGeometry x="1000" y="520" width="180" height="40" as="geometry" />
        </mxCell>
        <mxCell id="Kjfhgvf4wOYDhGiWFe_a-114" value="" style="edgeStyle=orthogonalEdgeStyle;rounded=0;orthogonalLoop=1;jettySize=auto;html=1;fontFamily=Verdana;fontSize=16;" edge="1" parent="1" source="Kjfhgvf4wOYDhGiWFe_a-31" target="Kjfhgvf4wOYDhGiWFe_a-113">
          <mxGeometry relative="1" as="geometry" />
        </mxCell>
        <mxCell id="Kjfhgvf4wOYDhGiWFe_a-31" value="图像处理" style="rounded=0;whiteSpace=wrap;html=1;fontFamily=Verdana;fontSize=15;" vertex="1" parent="1">
          <mxGeometry x="-170" y="820" width="180" height="40" as="geometry" />
        </mxCell>
        <mxCell id="Kjfhgvf4wOYDhGiWFe_a-55" style="edgeStyle=orthogonalEdgeStyle;rounded=0;orthogonalLoop=1;jettySize=auto;html=1;entryX=0.5;entryY=0;entryDx=0;entryDy=0;fontFamily=Verdana;fontSize=16;" edge="1" parent="1" source="Kjfhgvf4wOYDhGiWFe_a-33" target="Kjfhgvf4wOYDhGiWFe_a-36">
          <mxGeometry relative="1" as="geometry" />
        </mxCell>
        <mxCell id="Kjfhgvf4wOYDhGiWFe_a-33" value="登录模块" style="rounded=0;whiteSpace=wrap;html=1;fontFamily=Verdana;fontSize=15;" vertex="1" parent="1">
          <mxGeometry x="288.75" y="820" width="180" height="40" as="geometry" />
        </mxCell>
        <mxCell id="Kjfhgvf4wOYDhGiWFe_a-35" value="" style="edgeStyle=orthogonalEdgeStyle;rounded=0;orthogonalLoop=1;jettySize=auto;html=1;fontFamily=Verdana;fontSize=15;" edge="1" parent="1" source="Kjfhgvf4wOYDhGiWFe_a-36" target="Kjfhgvf4wOYDhGiWFe_a-40">
          <mxGeometry relative="1" as="geometry" />
        </mxCell>
        <mxCell id="Kjfhgvf4wOYDhGiWFe_a-36" value="登录" style="rounded=0;whiteSpace=wrap;html=1;fontFamily=Verdana;fontSize=15;" vertex="1" parent="1">
          <mxGeometry x="269.75" y="910" width="217.5" height="40" as="geometry" />
        </mxCell>
        <mxCell id="Kjfhgvf4wOYDhGiWFe_a-37" value="成功获取用户昵称、头像" style="rounded=0;whiteSpace=wrap;html=1;fontFamily=Verdana;fontSize=15;" vertex="1" parent="1">
          <mxGeometry x="221" y="1110" width="217.5" height="40" as="geometry" />
        </mxCell>
        <mxCell id="Kjfhgvf4wOYDhGiWFe_a-38" value="" style="edgeStyle=orthogonalEdgeStyle;rounded=0;orthogonalLoop=1;jettySize=auto;html=1;fontFamily=Verdana;fontSize=15;" edge="1" parent="1" source="Kjfhgvf4wOYDhGiWFe_a-40" target="Kjfhgvf4wOYDhGiWFe_a-37">
          <mxGeometry relative="1" as="geometry" />
        </mxCell>
        <mxCell id="Kjfhgvf4wOYDhGiWFe_a-39" value="" style="edgeStyle=orthogonalEdgeStyle;rounded=0;orthogonalLoop=1;jettySize=auto;html=1;fontFamily=Verdana;fontSize=16;" edge="1" parent="1" source="Kjfhgvf4wOYDhGiWFe_a-40" target="Kjfhgvf4wOYDhGiWFe_a-43">
          <mxGeometry relative="1" as="geometry">
            <Array as="points">
              <mxPoint x="534.75" y="1025" />
            </Array>
          </mxGeometry>
        </mxCell>
        <mxCell id="Kjfhgvf4wOYDhGiWFe_a-40" value="微信用户授权" style="rhombus;whiteSpace=wrap;html=1;fontFamily=Verdana;fontSize=15;" vertex="1" parent="1">
          <mxGeometry x="268.5" y="990" width="220" height="70" as="geometry" />
        </mxCell>
        <mxCell id="Kjfhgvf4wOYDhGiWFe_a-41" value="允许" style="text;html=1;strokeColor=none;fillColor=none;align=center;verticalAlign=middle;whiteSpace=wrap;rounded=0;fontFamily=Verdana;fontSize=16;" vertex="1" parent="1">
          <mxGeometry x="378.5" y="1070" width="60" height="30" as="geometry" />
        </mxCell>
        <mxCell id="Kjfhgvf4wOYDhGiWFe_a-42" value="拒绝" style="text;html=1;strokeColor=none;fillColor=none;align=center;verticalAlign=middle;whiteSpace=wrap;rounded=0;fontFamily=Verdana;fontSize=16;" vertex="1" parent="1">
          <mxGeometry x="469.75" y="990" width="60" height="30" as="geometry" />
        </mxCell>
        <mxCell id="Kjfhgvf4wOYDhGiWFe_a-43" value="拒绝获取" style="rounded=0;whiteSpace=wrap;html=1;fontFamily=Verdana;fontSize=15;" vertex="1" parent="1">
          <mxGeometry x="469.75" y="1110" width="130" height="40" as="geometry" />
        </mxCell>
        <mxCell id="Kjfhgvf4wOYDhGiWFe_a-105" style="edgeStyle=orthogonalEdgeStyle;rounded=0;orthogonalLoop=1;jettySize=auto;html=1;fontFamily=Verdana;fontSize=16;" edge="1" parent="1" source="Kjfhgvf4wOYDhGiWFe_a-46" target="Kjfhgvf4wOYDhGiWFe_a-102">
          <mxGeometry relative="1" as="geometry" />
        </mxCell>
        <mxCell id="Kjfhgvf4wOYDhGiWFe_a-106" style="edgeStyle=orthogonalEdgeStyle;rounded=0;orthogonalLoop=1;jettySize=auto;html=1;entryX=0.5;entryY=0;entryDx=0;entryDy=0;fontFamily=Verdana;fontSize=16;" edge="1" parent="1" source="Kjfhgvf4wOYDhGiWFe_a-46" target="Kjfhgvf4wOYDhGiWFe_a-103">
          <mxGeometry relative="1" as="geometry" />
        </mxCell>
        <mxCell id="Kjfhgvf4wOYDhGiWFe_a-107" style="edgeStyle=orthogonalEdgeStyle;rounded=0;orthogonalLoop=1;jettySize=auto;html=1;entryX=0.5;entryY=0;entryDx=0;entryDy=0;fontFamily=Verdana;fontSize=16;" edge="1" parent="1" source="Kjfhgvf4wOYDhGiWFe_a-46" target="Kjfhgvf4wOYDhGiWFe_a-104">
          <mxGeometry relative="1" as="geometry" />
        </mxCell>
        <mxCell id="Kjfhgvf4wOYDhGiWFe_a-46" value="Python在线运行模块" style="rounded=0;whiteSpace=wrap;html=1;fontFamily=Verdana;fontSize=15;" vertex="1" parent="1">
          <mxGeometry x="634.38" y="820" width="180" height="40" as="geometry" />
        </mxCell>
        <mxCell id="Kjfhgvf4wOYDhGiWFe_a-58" value="弹幕发送模块" style="rounded=0;whiteSpace=wrap;html=1;fontFamily=Verdana;fontSize=15;" vertex="1" parent="1">
          <mxGeometry x="-330" y="640" width="130" height="40" as="geometry" />
        </mxCell>
        <mxCell id="Kjfhgvf4wOYDhGiWFe_a-60" value="视频点播模块" style="rounded=0;whiteSpace=wrap;html=1;fontFamily=Verdana;fontSize=15;" vertex="1" parent="1">
          <mxGeometry x="-180" y="640" width="130" height="40" as="geometry" />
        </mxCell>
        <mxCell id="Kjfhgvf4wOYDhGiWFe_a-70" style="edgeStyle=orthogonalEdgeStyle;rounded=0;orthogonalLoop=1;jettySize=auto;html=1;fontFamily=Verdana;fontSize=16;exitX=0.5;exitY=1;exitDx=0;exitDy=0;" edge="1" parent="1" source="Kjfhgvf4wOYDhGiWFe_a-64" target="Kjfhgvf4wOYDhGiWFe_a-68">
          <mxGeometry relative="1" as="geometry">
            <mxPoint x="185" y="690" as="sourcePoint" />
          </mxGeometry>
        </mxCell>
        <mxCell id="Kjfhgvf4wOYDhGiWFe_a-64" value="正在阅读模块" style="rounded=0;whiteSpace=wrap;html=1;fontFamily=Verdana;fontSize=15;" vertex="1" parent="1">
          <mxGeometry x="120" y="640" width="130" height="40" as="geometry" />
        </mxCell>
        <mxCell id="Kjfhgvf4wOYDhGiWFe_a-69" value="" style="edgeStyle=orthogonalEdgeStyle;rounded=0;orthogonalLoop=1;jettySize=auto;html=1;fontFamily=Verdana;fontSize=16;exitX=0.5;exitY=1;exitDx=0;exitDy=0;" edge="1" parent="1" source="Kjfhgvf4wOYDhGiWFe_a-65" target="Kjfhgvf4wOYDhGiWFe_a-68">
          <mxGeometry relative="1" as="geometry">
            <mxPoint x="33.80000000000018" y="690" as="sourcePoint" />
          </mxGeometry>
        </mxCell>
        <mxCell id="Kjfhgvf4wOYDhGiWFe_a-65" value="电子书选择模块" style="rounded=0;whiteSpace=wrap;html=1;fontFamily=Verdana;fontSize=15;" vertex="1" parent="1">
          <mxGeometry x="-31.25" y="640" width="130" height="40" as="geometry" />
        </mxCell>
        <mxCell id="Kjfhgvf4wOYDhGiWFe_a-68" value="电子书阅读模块" style="rounded=0;whiteSpace=wrap;html=1;fontFamily=Verdana;fontSize=15;" vertex="1" parent="1">
          <mxGeometry x="20" y="730" width="180" height="40" as="geometry" />
        </mxCell>
        <mxCell id="Kjfhgvf4wOYDhGiWFe_a-80" style="edgeStyle=orthogonalEdgeStyle;rounded=0;orthogonalLoop=1;jettySize=auto;html=1;fontFamily=Verdana;fontSize=16;exitX=0.5;exitY=1;exitDx=0;exitDy=0;" edge="1" parent="1" source="Kjfhgvf4wOYDhGiWFe_a-81" target="Kjfhgvf4wOYDhGiWFe_a-84">
          <mxGeometry relative="1" as="geometry">
            <mxPoint x="724.38" y="690" as="sourcePoint" />
          </mxGeometry>
        </mxCell>
        <mxCell id="Kjfhgvf4wOYDhGiWFe_a-81" value="轮播图模块" style="rounded=0;whiteSpace=wrap;html=1;fontFamily=Verdana;fontSize=15;" vertex="1" parent="1">
          <mxGeometry x="659.38" y="640" width="130" height="40" as="geometry" />
        </mxCell>
        <mxCell id="Kjfhgvf4wOYDhGiWFe_a-82" value="" style="edgeStyle=orthogonalEdgeStyle;rounded=0;orthogonalLoop=1;jettySize=auto;html=1;fontFamily=Verdana;fontSize=16;exitX=0.5;exitY=1;exitDx=0;exitDy=0;" edge="1" parent="1" source="Kjfhgvf4wOYDhGiWFe_a-83" target="Kjfhgvf4wOYDhGiWFe_a-84">
          <mxGeometry relative="1" as="geometry">
            <mxPoint x="573.1800000000002" y="690" as="sourcePoint" />
          </mxGeometry>
        </mxCell>
        <mxCell id="Kjfhgvf4wOYDhGiWFe_a-83" value="文章列表模块" style="rounded=0;whiteSpace=wrap;html=1;fontFamily=Verdana;fontSize=15;" vertex="1" parent="1">
          <mxGeometry x="508.13" y="640" width="130" height="40" as="geometry" />
        </mxCell>
        <mxCell id="Kjfhgvf4wOYDhGiWFe_a-84" value="文章阅读模块" style="rounded=0;whiteSpace=wrap;html=1;fontFamily=Verdana;fontSize=15;" vertex="1" parent="1">
          <mxGeometry x="559.38" y="730" width="180" height="40" as="geometry" />
        </mxCell>
        <mxCell id="Kjfhgvf4wOYDhGiWFe_a-87" value="用户信息模块" style="rounded=0;whiteSpace=wrap;html=1;fontFamily=Verdana;fontSize=15;" vertex="1" parent="1">
          <mxGeometry x="810" y="640" width="130" height="40" as="geometry" />
        </mxCell>
        <mxCell id="Kjfhgvf4wOYDhGiWFe_a-88" value="正在阅读模块" style="rounded=0;whiteSpace=wrap;html=1;fontFamily=Verdana;fontSize=15;" vertex="1" parent="1">
          <mxGeometry x="1110" y="640" width="130" height="40" as="geometry" />
        </mxCell>
        <mxCell id="Kjfhgvf4wOYDhGiWFe_a-91" value="文章收藏模块" style="rounded=0;whiteSpace=wrap;html=1;fontFamily=Verdana;fontSize=15;" vertex="1" parent="1">
          <mxGeometry x="960" y="640" width="130" height="40" as="geometry" />
        </mxCell>
        <mxCell id="Kjfhgvf4wOYDhGiWFe_a-97" value="" style="edgeStyle=orthogonalEdgeStyle;rounded=0;orthogonalLoop=1;jettySize=auto;html=1;fontFamily=Verdana;fontSize=16;" edge="1" parent="1" source="Kjfhgvf4wOYDhGiWFe_a-94" target="Kjfhgvf4wOYDhGiWFe_a-96">
          <mxGeometry relative="1" as="geometry" />
        </mxCell>
        <mxCell id="Kjfhgvf4wOYDhGiWFe_a-99" style="edgeStyle=orthogonalEdgeStyle;rounded=0;orthogonalLoop=1;jettySize=auto;html=1;entryX=0.5;entryY=0;entryDx=0;entryDy=0;fontFamily=Verdana;fontSize=16;" edge="1" parent="1" source="Kjfhgvf4wOYDhGiWFe_a-94" target="Kjfhgvf4wOYDhGiWFe_a-98">
          <mxGeometry relative="1" as="geometry" />
        </mxCell>
        <mxCell id="Kjfhgvf4wOYDhGiWFe_a-94" value="天气预报模块" style="rounded=0;whiteSpace=wrap;html=1;fontFamily=Verdana;fontSize=15;" vertex="1" parent="1">
          <mxGeometry x="1260" y="640" width="130" height="40" as="geometry" />
        </mxCell>
        <mxCell id="Kjfhgvf4wOYDhGiWFe_a-96" value="地理位置模块" style="rounded=0;whiteSpace=wrap;html=1;fontFamily=Verdana;fontSize=15;" vertex="1" parent="1">
          <mxGeometry x="1180" y="730" width="130" height="40" as="geometry" />
        </mxCell>
        <mxCell id="Kjfhgvf4wOYDhGiWFe_a-98" value="天气信息模块" style="rounded=0;whiteSpace=wrap;html=1;fontFamily=Verdana;fontSize=15;" vertex="1" parent="1">
          <mxGeometry x="1330" y="730" width="130" height="40" as="geometry" />
        </mxCell>
        <mxCell id="Kjfhgvf4wOYDhGiWFe_a-102" value="代码输入模块" style="rounded=0;whiteSpace=wrap;html=1;fontFamily=Verdana;fontSize=15;" vertex="1" parent="1">
          <mxGeometry x="508.13" y="910" width="130" height="40" as="geometry" />
        </mxCell>
        <mxCell id="Kjfhgvf4wOYDhGiWFe_a-103" value="标准输入模块" style="rounded=0;whiteSpace=wrap;html=1;fontFamily=Verdana;fontSize=15;" vertex="1" parent="1">
          <mxGeometry x="659.38" y="910" width="130" height="40" as="geometry" />
        </mxCell>
        <mxCell id="Kjfhgvf4wOYDhGiWFe_a-104" value="运行结果模块" style="rounded=0;whiteSpace=wrap;html=1;fontFamily=Verdana;fontSize=15;" vertex="1" parent="1">
          <mxGeometry x="810" y="910" width="130" height="40" as="geometry" />
        </mxCell>
        <mxCell id="Kjfhgvf4wOYDhGiWFe_a-130" style="edgeStyle=orthogonalEdgeStyle;rounded=0;orthogonalLoop=1;jettySize=auto;html=1;entryX=0.5;entryY=0;entryDx=0;entryDy=0;fontFamily=Verdana;fontSize=16;" edge="1" parent="1" source="Kjfhgvf4wOYDhGiWFe_a-108" target="Kjfhgvf4wOYDhGiWFe_a-126">
          <mxGeometry relative="1" as="geometry">
            <Array as="points">
              <mxPoint x="145" y="1080" />
              <mxPoint x="-80" y="1080" />
            </Array>
          </mxGeometry>
        </mxCell>
        <mxCell id="Kjfhgvf4wOYDhGiWFe_a-108" value="图像颜色分割模块" style="rounded=0;whiteSpace=wrap;html=1;fontFamily=Verdana;fontSize=15;" vertex="1" parent="1">
          <mxGeometry x="80" y="1000" width="130" height="40" as="geometry" />
        </mxCell>
        <mxCell id="Kjfhgvf4wOYDhGiWFe_a-129" style="edgeStyle=orthogonalEdgeStyle;rounded=0;orthogonalLoop=1;jettySize=auto;html=1;entryX=0.5;entryY=0;entryDx=0;entryDy=0;fontFamily=Verdana;fontSize=16;" edge="1" parent="1" source="Kjfhgvf4wOYDhGiWFe_a-109" target="Kjfhgvf4wOYDhGiWFe_a-126">
          <mxGeometry relative="1" as="geometry">
            <Array as="points">
              <mxPoint x="-6" y="1080" />
              <mxPoint x="-80" y="1080" />
            </Array>
          </mxGeometry>
        </mxCell>
        <mxCell id="Kjfhgvf4wOYDhGiWFe_a-109" value="漫画风格模块" style="rounded=0;whiteSpace=wrap;html=1;fontFamily=Verdana;fontSize=15;" vertex="1" parent="1">
          <mxGeometry x="-71.25" y="1000" width="130" height="40" as="geometry" />
        </mxCell>
        <mxCell id="Kjfhgvf4wOYDhGiWFe_a-128" style="edgeStyle=orthogonalEdgeStyle;rounded=0;orthogonalLoop=1;jettySize=auto;html=1;entryX=0.5;entryY=0;entryDx=0;entryDy=0;fontFamily=Verdana;fontSize=16;" edge="1" parent="1" source="Kjfhgvf4wOYDhGiWFe_a-110" target="Kjfhgvf4wOYDhGiWFe_a-126">
          <mxGeometry relative="1" as="geometry">
            <Array as="points">
              <mxPoint x="-155" y="1080" />
              <mxPoint x="-80" y="1080" />
            </Array>
          </mxGeometry>
        </mxCell>
        <mxCell id="Kjfhgvf4wOYDhGiWFe_a-110" value="赛博朋克风格模块" style="rounded=0;whiteSpace=wrap;html=1;fontFamily=Verdana;fontSize=15;" vertex="1" parent="1">
          <mxGeometry x="-220" y="1000" width="130" height="40" as="geometry" />
        </mxCell>
        <mxCell id="Kjfhgvf4wOYDhGiWFe_a-127" style="edgeStyle=orthogonalEdgeStyle;rounded=0;orthogonalLoop=1;jettySize=auto;html=1;fontFamily=Verdana;fontSize=16;" edge="1" parent="1" source="Kjfhgvf4wOYDhGiWFe_a-111" target="Kjfhgvf4wOYDhGiWFe_a-126">
          <mxGeometry relative="1" as="geometry">
            <Array as="points">
              <mxPoint x="-305" y="1080" />
              <mxPoint x="-80" y="1080" />
            </Array>
          </mxGeometry>
        </mxCell>
        <mxCell id="Kjfhgvf4wOYDhGiWFe_a-111" value="素描风格模块" style="rounded=0;whiteSpace=wrap;html=1;fontFamily=Verdana;fontSize=15;" vertex="1" parent="1">
          <mxGeometry x="-370" y="1000" width="130" height="40" as="geometry" />
        </mxCell>
        <mxCell id="Kjfhgvf4wOYDhGiWFe_a-122" style="edgeStyle=orthogonalEdgeStyle;rounded=0;orthogonalLoop=1;jettySize=auto;html=1;entryX=0.5;entryY=0;entryDx=0;entryDy=0;fontFamily=Verdana;fontSize=16;" edge="1" parent="1" source="Kjfhgvf4wOYDhGiWFe_a-113" target="Kjfhgvf4wOYDhGiWFe_a-110">
          <mxGeometry relative="1" as="geometry">
            <Array as="points">
              <mxPoint x="-80" y="970" />
              <mxPoint x="-155" y="970" />
            </Array>
          </mxGeometry>
        </mxCell>
        <mxCell id="Kjfhgvf4wOYDhGiWFe_a-123" style="edgeStyle=orthogonalEdgeStyle;rounded=0;orthogonalLoop=1;jettySize=auto;html=1;fontFamily=Verdana;fontSize=16;" edge="1" parent="1" source="Kjfhgvf4wOYDhGiWFe_a-113" target="Kjfhgvf4wOYDhGiWFe_a-109">
          <mxGeometry relative="1" as="geometry">
            <Array as="points">
              <mxPoint x="-80" y="970" />
              <mxPoint x="-6" y="970" />
            </Array>
          </mxGeometry>
        </mxCell>
        <mxCell id="Kjfhgvf4wOYDhGiWFe_a-124" style="edgeStyle=orthogonalEdgeStyle;rounded=0;orthogonalLoop=1;jettySize=auto;html=1;fontFamily=Verdana;fontSize=16;" edge="1" parent="1" source="Kjfhgvf4wOYDhGiWFe_a-113" target="Kjfhgvf4wOYDhGiWFe_a-108">
          <mxGeometry relative="1" as="geometry">
            <Array as="points">
              <mxPoint x="-80" y="970" />
              <mxPoint x="145" y="970" />
            </Array>
          </mxGeometry>
        </mxCell>
        <mxCell id="Kjfhgvf4wOYDhGiWFe_a-125" style="edgeStyle=orthogonalEdgeStyle;rounded=0;orthogonalLoop=1;jettySize=auto;html=1;fontFamily=Verdana;fontSize=16;" edge="1" parent="1" source="Kjfhgvf4wOYDhGiWFe_a-113" target="Kjfhgvf4wOYDhGiWFe_a-111">
          <mxGeometry relative="1" as="geometry">
            <Array as="points">
              <mxPoint x="-80" y="970" />
              <mxPoint x="-305" y="970" />
            </Array>
          </mxGeometry>
        </mxCell>
        <mxCell id="Kjfhgvf4wOYDhGiWFe_a-113" value="图片打开、上传模块" style="rounded=0;whiteSpace=wrap;html=1;fontFamily=Verdana;fontSize=15;" vertex="1" parent="1">
          <mxGeometry x="-170" y="910" width="180" height="40" as="geometry" />
        </mxCell>
        <mxCell id="Kjfhgvf4wOYDhGiWFe_a-126" value="图片显示模块" style="rounded=0;whiteSpace=wrap;html=1;fontFamily=Verdana;fontSize=15;" vertex="1" parent="1">
          <mxGeometry x="-170" y="1110" width="180" height="40" as="geometry" />
        </mxCell>
      </root>
    </mxGraphModel>
  </diagram>
</mxfile>
